<?xml version="1.0" standalone="no"?>
<!DOCTYPE svg PUBLIC "-//W3C//DTD SVG 20010904//EN"
 "http://www.w3.org/TR/2001/REC-SVG-20010904/DTD/svg10.dtd">
<svg version="1.0" xmlns="http://www.w3.org/2000/svg"
 width="1024.000000pt" height="1024.000000pt" viewBox="0 0 1024.000000 1024.000000"
 preserveAspectRatio="xMidYMid meet">

<g transform="translate(0.000000,1024.000000) scale(0.100000,-0.100000)"
fill="#000000" stroke="none">
<path d="M4885 6940 l-500 -500 145 0 145 0 500 500 500 500 -145 0 -145 0
-500 -500z"/>
<path d="M2650 7156 c14 -13 65 -56 383 -325 81 -68 147 -127 147 -132 0 -5 4
-9 10 -9 8 0 99 -74 384 -315 l118 -99 -24 -21 c-14 -11 -85 -69 -159 -130
-74 -60 -210 -173 -304 -250 -93 -77 -263 -216 -377 -308 -114 -92 -210 -172
-213 -177 -4 -7 127 -10 375 -10 l381 0 372 296 c205 163 379 303 387 310 16
14 10 19 631 -488 l144 -118 388 0 c214 0 387 4 385 9 -1 4 -243 211 -536 460
l-533 451 -114 0 -113 0 -507 435 -508 435 -365 0 c-313 0 -364 -2 -352 -14z"/>
<path d="M1028 7140 c-233 -39 -407 -205 -447 -424 -7 -37 -11 -219 -11 -478
0 -459 6 -526 58 -622 59 -109 169 -199 288 -236 73 -22 34 -21 1012 -20 l652
0 0 200 0 200 -700 0 c-761 0 -738 -2 -792 56 -39 42 -48 75 -48 172 l0 87
745 -3 745 -2 0 190 0 190 -745 0 -745 0 0 78 c1 116 32 173 113 207 31 13
129 15 732 15 l695 0 0 200 0 200 -752 -1 c-414 -1 -774 -5 -800 -9z"/>
<path d="M5908 7140 c-173 -29 -312 -130 -387 -281 -59 -118 -63 -155 -59
-660 4 -430 4 -446 26 -503 60 -161 181 -270 358 -322 54 -16 125 -18 839 -18
l780 -1 3 202 2 203 -718 2 -719 3 -35 27 c-52 40 -66 79 -69 186 l-2 93 737
-1 736 0 0 190 0 190 -741 0 -742 0 7 87 c9 103 30 152 83 184 l38 24 713 3
712 3 0 199 0 200 -757 -1 c-417 -1 -779 -5 -805 -9z"/>
<path d="M8115 7135 c-248 -46 -405 -201 -451 -443 -24 -126 -16 -892 10 -972
54 -166 197 -302 366 -345 58 -15 139 -17 730 -18 734 0 723 -1 852 64 78 39
176 136 211 209 56 117 58 139 55 627 l-3 448 -26 71 c-64 175 -196 295 -386
351 -52 15 -125 17 -673 19 -475 2 -631 0 -685 -11z m1187 -395 c50 -14 97
-55 119 -105 17 -36 19 -72 19 -383 0 -286 -3 -349 -15 -379 -20 -48 -41 -71
-88 -94 -35 -19 -62 -19 -575 -17 l-538 3 -38 25 c-21 14 -47 43 -59 65 -21
38 -22 53 -25 365 -4 364 1 407 51 464 57 65 56 65 612 66 314 0 514 -4 537
-10z"/>
<path d="M739 4856 c-2 -2 -3 -227 -1 -500 l2 -496 130 0 130 0 0 185 0 185
109 0 c99 0 111 -2 124 -20 8 -11 85 -95 171 -185 l158 -165 165 0 165 0 -34
39 c-18 21 -126 135 -240 253 l-207 215 239 239 c132 131 240 242 240 246 0 5
-71 8 -158 8 l-158 0 -199 -200 -198 -201 -86 3 -86 3 -3 198 -2 197 -129 0
c-70 0 -130 -2 -132 -4z"/>
<path d="M2255 4849 c-57 -4 -94 -13 -130 -32 -61 -31 -85 -56 -122 -127 l-28
-55 0 -280 0 -280 28 -57 c33 -68 82 -111 155 -138 49 -19 79 -20 472 -20
l420 0 0 115 0 115 -389 0 -390 0 -26 23 c-22 18 -27 34 -32 85 l-6 62 417 0
416 0 0 100 0 100 -415 0 -415 0 0 28 c0 47 20 101 43 117 18 13 77 15 410 15
l388 0 -3 118 -3 117 -355 0 c-195 0 -391 -3 -435 -6z"/>
<path d="M3213 4847 c2 -6 122 -168 266 -359 l261 -347 0 -141 0 -140 130 0
130 0 0 149 0 149 43 54 c24 29 115 148 203 263 88 116 188 246 222 290 34 44
62 83 62 88 0 4 -67 7 -149 7 l-149 0 -178 -237 c-98 -131 -180 -240 -182
-243 -2 -3 -9 2 -15 12 -7 9 -84 118 -172 242 l-160 226 -158 0 c-123 0 -158
-3 -154 -13z"/>
<path d="M4870 4850 c-127 -12 -214 -72 -264 -179 -20 -43 -21 -62 -21 -321 0
-266 1 -276 23 -317 35 -66 79 -110 140 -140 l57 -28 448 -3 448 -3 -3 116 -2
115 -381 0 c-359 0 -382 1 -412 20 -63 38 -68 55 -68 245 0 151 2 174 20 202
37 62 43 63 464 63 l382 0 -3 118 -3 117 -375 1 c-206 1 -409 -2 -450 -6z"/>
<path d="M6158 4850 c-98 -10 -173 -45 -227 -106 -70 -79 -76 -113 -76 -399 0
-240 1 -252 23 -300 31 -67 85 -122 152 -154 l55 -26 386 -3 c373 -3 388 -2
443 18 83 31 136 76 171 145 l30 58 3 246 c3 205 0 253 -13 295 -34 102 -105
174 -210 211 -43 15 -93 18 -355 21 -168 1 -340 -1 -382 -6z m621 -248 c69
-34 76 -55 79 -229 4 -190 -7 -232 -69 -263 -35 -18 -59 -20 -306 -20 -371 0
-363 -6 -363 267 0 151 2 171 20 201 35 57 56 61 345 62 228 0 264 -2 294 -18z"/>
<path d="M7320 4360 l0 -501 498 3 497 3 57 28 c61 30 105 74 140 140 22 41
23 51 23 312 0 262 -1 271 -24 322 -28 62 -94 126 -159 154 -71 31 -189 38
-629 39 l-403 0 0 -500z m927 217 l38 -37 3 -169 c4 -192 -4 -227 -60 -261
-31 -19 -50 -20 -345 -20 l-313 0 0 265 0 266 320 -3 320 -3 37 -38z"/>
<path d="M8995 4848 c-74 -10 -155 -49 -191 -91 -15 -18 -39 -57 -53 -87 -26
-55 -26 -55 -26 -325 l0 -270 27 -50 c34 -64 80 -108 143 -137 49 -23 55 -23
483 -26 l432 -3 0 116 0 115 -385 0 c-260 0 -392 4 -408 11 -32 15 -47 49 -47
109 l0 50 420 0 420 0 0 100 0 100 -420 0 -420 0 0 51 c0 43 5 55 29 80 l29
29 392 0 391 0 -3 118 -3 117 -375 1 c-206 0 -402 -3 -435 -8z"/>
</g>
</svg>
